<?xml version="1.0" encoding="UTF-8"?>
<svg width="349px" height="40px" viewBox="0 0 349 40" version="1.1" xmlns="http://www.w3.org/2000/svg" xmlns:xlink="http://www.w3.org/1999/xlink">
    <title>编组 2</title>
    <defs>
        <polygon id="path-1" points="0 0 36 0 36 36 0 36"></polygon>
        <polygon id="path-3" points="0 0 20 0 20 14 0 14"></polygon>
        <polygon id="path-5" points="0 38 158 38 158 0 0 0"></polygon>
    </defs>
    <g id="隐私联合计算服务" stroke="none" stroke-width="1" fill="none" fill-rule="evenodd">
        <g id="编组-2">
            <g id="编组" transform="translate(0.000000, 1.000000)">
                <g transform="translate(0.000000, 2.000000)">
                    <mask id="mask-2" fill="white">
                        <use xlink:href="#path-1"></use>
                    </mask>
                    <g id="Clip-2"></g>
                    <path d="M31.8549631,12.9261445 L20.9867102,2.04095165 C18.7349599,-0.219161877 16.0203786,-0.0800706644 15.0620965,0.0775343956 C6.5174533,1.48933394 0,8.93949602 0,17.9191867 C0,27.9047965 8.06148366,36.0000949 18.0059658,36.0000949 C27.7154867,36.0000949 35.6299424,28.2214307 35.9996398,18.5600507 C36.0043674,18.4461193 35.9651284,18.1133448 35.7282762,17.9642846 C35.4417844,17.7843679 34.8692734,17.8527268 34.8692734,17.8527268 L27.9012809,17.8527268 C27.9012809,17.8527268 27.2408368,17.8527268 27.0342412,17.9476696 C26.8999777,18.0093824 26.7137107,18.1522713 26.7137107,18.1522713 L18.2243803,26.6757618 C18.085862,26.8158025 17.8608288,26.8158025 17.7223105,26.6757618 L9.18570417,18.1047999 C9.04671307,17.9657087 9.04671307,17.7397448 9.18570417,17.6006536 L17.7223105,9.02874226 C17.8608288,8.88965105 18.085862,8.88965105 18.2243803,9.02874226 L26.056576,16.8919056 C26.056576,16.8919056 26.4655123,17.2583848 26.8493925,17.3599736 C27.207271,17.4553911 27.7358153,17.090336 27.7358153,17.090336 L31.8549631,12.9261445 Z" id="Fill-1" fill="#FFFFFF" mask="url(#mask-2)"></path>
                </g>
                <g transform="translate(16.000000, 0.000000)">
                    <mask id="mask-4" fill="white">
                        <use xlink:href="#path-3"></use>
                    </mask>
                    <g id="Clip-4"></g>
                    <path d="M19.6785395,9.40415378 L13.9035959,3.47782939 C7.45536142,-2.93318299 0,1.48162937 0,1.48162937 C0,1.48162937 3.16746342,-0.272709404 7.21516797,4.12230992 L16.7568881,14 L19.569914,11.1271134 C19.569914,11.1271134 19.9093687,10.6902183 19.9903696,10.2938748 C20.0652838,9.92263475 19.6785395,9.40415378 19.6785395,9.40415378" id="Fill-3" fill="#FFFFFF" mask="url(#mask-4)"></path>
                </g>
                <path d="M52.7624939,29.0951042 C53.4921048,29.0951042 54.1010907,29.2407044 54.5884747,29.5299952 C55.0753703,29.8188087 55.4084324,30.2699305 55.5871724,30.882406 L57,30.882406 C56.9028162,29.9920967 56.472082,29.2903517 55.7092626,28.7747839 C54.9454664,28.2582613 53.9516523,28 52.7253785,28 C51.1426013,28 49.9593033,28.4558956 49.1749959,29.3629131 C48.3921537,30.2713626 48,31.3492813 48,32.596669 C48,33.9610142 48.422432,35.0365459 49.2672961,35.8213547 C50.1111835,36.6075956 51.255901,37 52.7014488,37 C53.9028162,37 54.8829562,36.6834986 55.6418688,36.0533602 C56.4007814,35.4232218 56.8539801,34.6150215 57,33.6311462 L55.5871724,33.6311462 C55.4489663,34.3538959 55.1217646,34.9148146 54.606544,35.3153344 C54.0913235,35.7163316 53.4359434,35.9168302 52.6404037,35.9168302 C51.6578219,35.9168302 50.8837701,35.6175145 50.3206902,35.0174508 C49.7556568,34.4183419 49.4743611,33.5910465 49.4743611,32.536042 C49.4743611,31.4566912 49.763959,30.6141198 50.3451083,30.0059407 C50.9243041,29.3991938 51.7305877,29.0951042 52.7624939,29.0951042" id="Fill-5" fill="#FFFFFF"></path>
                <path d="M62.7622639,29.0951042 C63.4928913,29.0951042 64.1014217,29.2407044 64.5883438,29.5299952 C65.0762427,29.8188087 65.4088344,30.2699305 65.5875841,30.882406 L67,30.882406 C66.9032993,29.9920967 66.4720534,29.2903517 65.7091925,28.7747839 C64.9458433,28.2582613 63.9509985,28 62.7251465,28 C61.1422835,28 59.9589212,28.4558956 59.1755481,29.3629131 C58.3916866,30.2713626 58,31.3492813 58,32.596669 C58,33.9610142 58.422455,35.0365459 59.2663881,35.8213547 C60.111298,36.6075956 61.2560777,37 62.7007272,37 C63.9021598,37 64.8823529,36.6834986 65.6417951,36.0533602 C66.4012372,35.4232218 66.8539722,34.6150215 67,33.6311462 L65.5875841,33.6311462 C65.4488821,34.3538959 65.1226395,34.9148146 64.6073909,35.3153344 C64.0906772,35.7163316 63.4352616,35.9168302 62.6401671,35.9168302 C61.6580204,35.9168302 60.884415,35.6175145 60.3198394,35.0174508 C59.7552637,34.4183419 59.4734643,33.5910465 59.4734643,32.536042 C59.4734643,31.4566912 59.7640547,30.6141198 60.3442587,30.0059407 C60.9244628,29.3991938 61.7303017,29.0951042 62.7622639,29.0951042" id="Fill-7" fill="#FFFFFF"></path>
                <path d="M73.9590059,35.6050619 C73.5007686,35.7778817 72.9990392,35.864044 72.4551627,35.864044 L72.4417115,35.864044 L72.4210863,35.864044 L70.3079042,35.864044 L70.3079042,32.8765887 L72.567256,32.8765887 C73.1035101,32.8765887 73.5846144,32.970674 74.0087753,33.1598349 C74.4342813,33.3499862 74.6463618,33.7575241 74.6463618,34.3819532 C74.6463618,35.0242091 74.4167948,35.4327373 73.9590059,35.6050619 L73.9590059,35.6050619 Z M70.3079042,29.1339752 L72.4107738,29.1339752 C73.0586728,29.1339752 73.524084,29.2379642 73.8079042,29.4434663 C74.0912759,29.6499587 74.2325135,29.994608 74.2325135,30.4803851 C74.2325135,30.9166437 74.0971048,31.2360385 73.824494,31.4385695 C73.5527799,31.6391197 73.1183064,31.7406327 72.5224187,31.7406327 L70.3079042,31.7406327 L70.3079042,29.1339752 Z M74.3446067,32.1357909 C74.7624904,31.9703989 75.0727645,31.7396424 75.277671,31.4385695 C75.4830259,31.1370014 75.5857033,30.7606602 75.5857033,30.3090509 C75.5857033,29.9455846 75.5049962,29.6063824 75.3458237,29.2899587 C75.1844094,28.9715543 74.9557392,28.70663 74.6580195,28.4922146 C74.4042403,28.3035488 74.1186267,28.1738102 73.8020753,28.1049794 C73.4850756,28.034663 73.0331156,28 72.4439534,28 L69,28 L69,37 L72.567256,37 C73.215155,37 73.7124007,36.9643466 74.0594415,36.8895736 C74.4055854,36.8152957 74.7136177,36.688033 74.9817448,36.506795 C75.3104023,36.2770289 75.5610428,35.9804127 75.736805,35.6179367 C75.9116705,35.2564512 76,34.8523796 76,34.4072077 C76,33.8823109 75.8551755,33.4103989 75.5691135,32.9934525 C75.2817064,32.5774966 74.8741353,32.2922696 74.3446067,32.1357909 L74.3446067,32.1357909 Z" id="Fill-9" fill="#FFFFFF"></path>
                <polygon id="Fill-11" fill="#FFFFFF" points="82 37 83.4218369 37 83.4218369 32.9513618 88.3073602 32.9513618 88.3073602 31.8154058 83.4218369 31.8154058 83.4218369 29.1339752 89 29.1339752 89 28 82 28"></polygon>
                <mask id="mask-6" fill="white">
                    <use xlink:href="#path-5"></use>
                </mask>
                <g id="Clip-14"></g>
                <polygon id="Fill-13" fill="#FFFFFF" mask="url(#mask-6)" points="90 36 91 36 91 30 90 30"></polygon>
                <path d="M98.9140683,31.2836718 C98.898355,31.2471589 98.8821507,31.2084464 98.8649644,31.1684141 C98.8482691,31.1283818 98.8330469,31.0865899 98.8163516,31.0417186 C98.6695311,30.7210206 98.3955315,30.4658699 97.9958262,30.2802258 C97.5951387,30.0945817 97.1301252,30 96.5993125,30 C96.2644243,30 95.9717653,30.0294743 95.7178984,30.0888628 C95.4659956,30.1464917 95.2204763,30.2463524 94.9833047,30.3840458 C94.8777314,30.450033 94.7672477,30.5261383 94.6523447,30.6136814 C94.5389148,30.7025442 94.4205745,30.8006452 94.2978149,30.9110639 L94.2978149,30.1539702 L93,30.1539702 L93,36 L94.2978149,36 L94.2978149,32.9285138 C94.2978149,32.6729232 94.3012521,32.4855195 94.3105819,32.3645429 C94.3184385,32.2435662 94.3351338,32.1353472 94.3596857,32.0407655 C94.3665603,32.0117311 94.3778542,31.9800572 94.3896391,31.9475035 C94.4024061,31.9145099 94.4161552,31.8793167 94.4328505,31.8428037 C94.5551191,31.5647775 94.7775595,31.3404209 95.0996808,31.1684141 C95.4227842,30.9964074 95.7920452,30.9110639 96.2079548,30.9110639 C96.7471151,30.9110639 97.1301252,31.0272014 97.3594402,31.262116 C97.5877731,31.4957108 97.7021851,31.8942738 97.7021851,32.4578048 L97.7021851,36 L99,36 L99,32.270841 C99,31.9998534 98.9936165,31.7974925 98.9818316,31.6615588 C98.9690646,31.5273847 98.9464768,31.4011291 98.9140683,31.2836718" id="Fill-15" fill="#FFFFFF" mask="url(#mask-6)"></path>
                <path d="M101.937343,29 L100.844194,29 L100.844194,30.5489221 L100,30.5489221 L100,31.4586591 L100.844194,31.4586591 L100.844194,35.204217 C100.844194,35.9054726 100.937761,36.379294 101.125313,36.628524 C101.312448,36.8758588 101.670008,37 102.197577,37 C102.274436,37 102.352548,36.9985785 102.432331,36.9933665 C102.512114,36.9900498 102.593567,36.9838901 102.677109,36.9763089 C102.732247,36.968254 102.78655,36.9630419 102.838346,36.9583037 C102.890142,36.9545131 102.944027,36.9568823 103,36.9644634 L103,36.0433547 C102.931078,36.050462 102.864662,36.055674 102.801587,36.055674 L102.635756,36.055674 C102.357978,36.055674 102.172097,36.0035537 102.078112,35.9016821 C101.984127,35.7988628 101.937343,35.5936982 101.937343,35.2876096 L101.937343,31.4586591 L103,31.4586591 L103,30.5489221 L101.937343,30.5489221 L101.937343,29 Z" id="Fill-16" fill="#FFFFFF" mask="url(#mask-6)"></path>
                <path d="M105.44546,32.8308343 C105.537692,32.237248 105.766002,31.7908028 106.129887,31.4899921 C106.49478,31.1891814 106.982648,31.0400316 107.594499,31.0400316 C108.18871,31.0400316 108.668515,31.1967143 109.033912,31.5080709 C109.398301,31.8214363 109.600907,32.2623574 109.643243,32.8308343 L105.44546,32.8308343 Z M107.618691,30 C106.513932,30 105.633955,30.3173829 104.980272,30.9516465 C104.327093,31.5864122 104,32.4381233 104,33.5062774 C104,34.5915058 104.314493,35.4452256 104.942976,36.0664323 C105.570955,36.6896478 106.429765,37 107.5189,37 C108.390309,37 109.123623,36.7910897 109.718338,36.3737714 C110.313053,35.9559509 110.702642,35.3799412 110.887105,34.6457422 L109.492044,34.6457422 C109.382677,35.0891743 109.165959,35.4206184 108.838361,35.6415812 C108.511268,35.8630461 108.088415,35.9730253 107.568795,35.9730253 C106.890921,35.9730253 106.369285,35.7937442 106.004392,35.4351819 C105.640003,35.0761174 105.436389,34.5528374 105.394557,33.8693594 L110.9874,33.8693594 C110.995464,33.7443145 111,33.6443791 111,33.5690509 L111,33.3686778 L111,33.3490925 L111,33.3300093 C111,32.3964416 110.729858,31.6070019 110.189574,30.963699 C109.649291,30.3214004 108.792498,30 107.618691,30 L107.618691,30 Z" id="Fill-17" fill="#FFFFFF" mask="url(#mask-6)"></path>
                <path d="M115.156666,31.0363883 C115.574592,31.0363883 115.927428,31.1609951 116.214724,31.4107092 C116.501571,31.6594224 116.694149,32.0167286 116.791112,32.4831284 L118,32.4831284 C117.910669,31.7089648 117.613946,31.1029454 117.110729,30.6620675 C116.606165,30.2201887 115.955709,30 115.156666,30 C114.164148,30 113.390244,30.3172719 112.834505,30.9483128 C112.278318,31.580855 112,32.4676151 112,33.6065914 C112,34.6890192 112.278318,35.5247355 112.834505,36.1152416 C113.390244,36.7047469 114.171779,37 115.178662,37 C115.664372,37 116.102499,36.9109236 116.494389,36.7317701 C116.886728,36.5536174 117.212629,36.2938948 117.473889,35.9516014 C117.489152,35.9365885 117.499476,35.9220761 117.507108,35.9095653 C117.515188,35.8965542 117.52641,35.8820418 117.541224,35.8655276 C117.675445,35.6733629 117.774203,35.4726909 117.837498,35.2600086 C117.900793,35.0478267 117.955559,34.7755934 118,34.4413068 L116.791112,34.4413068 C116.663624,34.9507435 116.464761,35.3325708 116.19183,35.5902917 C115.919796,35.8500143 115.574592,35.9781241 115.156666,35.9781241 C114.552447,35.9781241 114.086039,35.7579354 113.757444,35.3160566 C113.428849,34.8751787 113.26545,34.2471404 113.26545,33.4324421 C113.26545,32.6827995 113.432889,32.0962968 113.769116,31.6729339 C114.104444,31.2475693 114.567709,31.0363883 115.156666,31.0363883" id="Fill-18" fill="#FFFFFF" mask="url(#mask-6)"></path>
                <path d="M122.563375,30.2457907 C122.154897,30.2457907 121.790115,30.2997689 121.467556,30.4072301 C121.144505,30.5137009 120.833238,30.6909871 120.530808,30.9366127 C120.490058,30.9623638 120.450781,30.9935622 120.414451,31.0307032 C120.378611,31.067349 120.338843,31.1020139 120.298584,31.1356883 L120.298584,28 L119,28 L119,37 L120.298584,37 L120.298584,33.5067679 C120.298584,33.12793 120.319205,32.8357544 120.359463,32.6292506 C120.400704,32.4227468 120.48613,32.2340707 120.615743,32.0612413 C120.632436,32.0448993 120.647165,32.0280621 120.658948,32.0122153 C120.671222,31.995378 120.68595,31.979036 120.702643,31.962694 C120.89068,31.7408386 121.116521,31.5694949 121.382129,31.451139 C121.646756,31.330307 121.942312,31.2713767 122.269291,31.2713767 C122.79167,31.2713767 123.161362,31.3981512 123.377383,31.6536811 C123.593405,31.9102014 123.701907,32.3365797 123.701907,32.9382635 L123.701907,37 L125,37 L125,32.6792671 C125,31.9369429 124.827674,31.3471443 124.484985,30.9073952 C124.142787,30.4661604 123.501105,30.2457907 122.563375,30.2457907" id="Fill-19" fill="#FFFFFF" mask="url(#mask-6)"></path>
                <polygon id="Fill-20" fill="#FFFFFF" mask="url(#mask-6)" points="90 29 91 29 91 28 90 28"></polygon>
                <path d="M113.308577,10.3009187 C114.79017,9.39849528 116.304667,8.23643064 117.625033,6.75151624 C119.002275,8.24275149 120.495149,9.40287125 121.925507,10.3009187 L113.308577,10.3009187 Z M123.292878,12.1981472 L123.292878,11.0963738 C126.269225,12.6906876 128.673993,13.1487064 128.673993,13.1487064 L130,10.6646109 C122.098485,7.9962382 119.34353,4 119.34353,4 L115.717576,4 C115.717576,4 113.91306,7.23530465 105,10.6646109 L106.325537,13.1487064 C106.325537,13.1487064 108.77449,12.6717251 111.707592,11.1911866 L111.707592,12.1981472 L115.611345,12.1981472 L115.611345,14.5495048 L106.951641,14.5495048 L106.951641,16.4331192 L115.611345,16.4331192 L115.611345,21.1168718 L114.096849,21.1168718 C113.24042,19.6202881 113.010097,18.9206183 112.016884,17.7707091 L108.627834,17.7707091 C109.132666,18.2617908 110.323769,20.1454052 110.737412,21.1168718 L105.349716,21.1168718 L105.349716,23 L129.649814,23 L129.649814,21.1168718 L124.352837,21.1168718 C124.693152,20.5484812 125.525608,18.849144 125.881435,17.7707091 L122.773004,17.7707091 C122.34432,18.8758861 121.775561,19.9368171 120.868838,21.1168718 L119.388185,21.1168718 L119.388185,16.4331192 L127.996653,16.4331192 L127.996653,14.5495048 L119.388185,14.5495048 L119.388185,12.1981472 L123.292878,12.1981472 Z" id="Fill-21" fill="#FFFFFF" mask="url(#mask-6)"></path>
                <polygon id="Fill-22" fill="#FFFFFF" mask="url(#mask-6)" points="154.772119 4 151.359815 4 151.359815 16.4233577 144 16.4233577 144 18.3119221 151.359815 18.3119221 151.359815 23 154.772119 23 154.772119 18.3119221 158 18.3119221 158 16.4233577 154.772119 16.4233577"></polygon>
                <path d="M139.912184,6.71150796 L140.084579,6.71150796 L140.084579,6.69643862 C141.600528,6.65803613 142.837273,6.35713555 143.804651,5.93713862 L143.804651,4 C142.913164,4.35923349 140.92594,4.81909123 139.184191,4.82492453 L133.540607,4.82492453 L133.540607,6.71150796 L133.736425,6.71150796 L136.549551,6.71150796 L136.549551,8.99718569 L133.540607,8.99718569 L133.540607,10.8837691 L136.204761,10.8837691 C135.323112,13.4849307 133,16.5522694 133,16.5522694 L133,20.8684184 C134.345897,19.6667605 135.737703,17.8219823 136.549551,16.5376861 L136.549551,23 L139.912184,23 L139.912184,15.2660288 C140.411098,15.9937318 140.99621,16.9192806 141.280567,17.644553 L143.846344,16.4953948 C143.846344,16.4953948 142.585708,13.7294428 141.292279,12.0387607 L139.912184,12.6075065 L139.912184,10.8837691 L144,10.8837691 L144,8.99718569 L139.912184,8.99718569 L139.912184,6.71150796 Z" id="Fill-23" fill="#FFFFFF" mask="url(#mask-6)"></path>
                <path d="M146.809482,10 L150,10 C149.482942,8.15176559 148.755428,6.83460341 148.198494,6 L145,6 C145.27603,6.34560481 145.685423,7.08318128 145.905627,7.59493399 C146.351351,8.63346571 146.809482,10 146.809482,10" id="Fill-24" fill="#FFFFFF" mask="url(#mask-6)"></path>
                <path d="M146.809482,15 L150,15 C149.482942,13.1517656 148.755428,11.8346034 148.198494,11 L145,11 C145.27603,11.3456048 145.685423,12.082752 145.905627,12.594934 C146.351351,13.6334657 146.809482,15 146.809482,15" id="Fill-25" fill="#FFFFFF" mask="url(#mask-6)"></path>
                <path d="M65.9493832,11.4570488 L68.7773314,11.4570488 L68.7773314,10.1748195 L65.9493832,10.1748195 L65.9493832,11.4570488 Z M65.9493832,8.2870931 L68.7773314,8.2870931 L68.7773314,6.94325522 L65.9493832,6.94325522 L65.9493832,8.2870931 Z M73.7460714,21.0771374 L65.9493832,21.0829132 L65.9493832,19.7549588 L72.5942399,19.7549588 L72.5942399,17.8527929 L65.9493832,17.8527929 L65.9493832,16.5618999 L72.5942399,16.5618999 L72.5942399,14.6756175 L65.9493832,14.6756175 L65.9493832,13.3197467 L72.6590128,13.3197467 L72.6458705,10.1748195 L74,10.1748195 L74,8.28757441 L72.5843832,8.28757441 L72.5843832,6.90956301 C72.5843832,5.89350222 71.7897415,5.0718936 70.7998423,5.0718936 L65.9493832,5.0690057 L65.9493832,4 L62.3150592,4 L62.3150592,5.0690057 L57.4786813,5.0690057 L57.4786813,6.94325522 L62.3150592,6.94325522 L62.3150592,8.28757441 L56.8670935,8.28757441 L56.8670935,10.1748195 L62.3150592,10.1748195 L62.3150592,11.4570488 L57.4786813,11.4570488 L57.4786813,13.3197467 L62.3150592,13.3197467 L62.3150592,14.6756175 L57.0651672,14.6756175 L57.0651672,16.5618999 L62.3150592,16.5618999 L62.3150592,17.8527929 L56.5906352,17.8527929 L56.5906352,19.7549588 L62.3098962,19.7549588 L62.3098962,21.0829132 L58.5469651,21.0829132 C57.0825338,21.0829132 55.7194863,20.63962 54.5700017,19.8844332 C55.3101966,18.7875111 55.745771,17.4658138 55.745771,16.0343762 L55.7640764,11.0243445 L53.5162683,11.0123116 C55.4538235,9.73441419 56.4507632,7.43660545 56.4507632,4.89669411 C56.4507632,4.85674478 49.0136117,4.88032932 49.0136117,4.88032932 L49.0136117,6.77960735 L53.3092766,6.78249525 C52.976494,8.91761875 51.3703134,10.6166688 49.3135385,11.0344522 L49.3135385,12.8884864 L53.0778777,12.8884864 L53.0741227,15.6180367 C53.0741227,16.4333882 52.8680698,17.2020519 52.5127574,17.8749335 C51.9185363,17.0153008 51.4937574,16.0228246 51.2923981,14.9480431 L49.2689484,14.9701837 C49.4360438,16.6880051 50.074855,18.2532489 51.0506731,19.5383661 C50.4512889,19.9609626 49.7533372,20.239164 49,20.3248385 L49,22.8763015 C50.5259186,22.8763015 51.9396579,22.349259 53.0760002,21.4689297 C54.4751892,22.4315643 56.1583463,23 57.9762124,23 L73.7291741,23 L73.7460714,21.0771374 Z" id="Fill-26" fill="#FFFFFF" mask="url(#mask-6)"></path>
                <path d="M83.9082387,23 L83.9082387,8.12833119 C84.2711976,7.47875854 84.6264648,6.79038399 85,6.0454832 L82.1001743,4 C80.3469142,7.35325114 79.7979088,8.80233467 77,11.0791922 L78.6398053,14.0104127 C79.2537107,13.5840708 79.7988703,13.159645 80.2925906,12.7285127 L80.2925906,23 L83.9082387,23 Z" id="Fill-27" fill="#FFFFFF" mask="url(#mask-6)"></path>
                <polygon id="Fill-28" fill="#FFFFFF" mask="url(#mask-6)" points="85 11 102 11 102 9 85 9"></polygon>
                <polygon id="Fill-29" fill="#FFFFFF" mask="url(#mask-6)" points="85 14 102 14 102 12 85 12"></polygon>
                <polygon id="Fill-30" fill="#FFFFFF" mask="url(#mask-6)" points="102 5.33099197 95.4057902 5.33099197 95.4057902 4 91.5932606 4 91.5932606 5.33099197 85 5.33099197 85 7 102 7"></polygon>
                <path d="M88.8265552,21.1751192 L98.1728949,21.1751192 L98.1728949,17.8244106 L88.8265552,17.8244106 L88.8265552,21.1751192 Z M100.290503,16 L85,16 L85,23 L102,23 L102,22.9233559 C102,22.9233559 101.998974,17.877074 102,17.8244106 C102.008023,16.8830523 101.347402,16 100.290503,16 L100.290503,16 Z" id="Fill-31" fill="#FFFFFF" mask="url(#mask-6)"></path>
            </g>
            <text id="Operation-and-Manage" font-family="Alibaba-PuHuiTi-R, Alibaba PuHuiTi" font-size="10" font-weight="normal" letter-spacing="-0.404762143" fill="#FFFFFF">
                <tspan x="175" y="36.5">Operation and Management Platform</tspan>
            </text>
            <line x1="163.75" y1="7.75" x2="163.75" y2="39.25" id="直线" stroke="#979797" stroke-width="0.5" stroke-linecap="square"></line>
            <text id="隐私保护计算平台" font-family="Alibaba-PuHuiTi-H, Alibaba PuHuiTi" font-size="20.5" font-weight="normal" letter-spacing="1.36666667" fill="#FFFFFF">
                <tspan x="175" y="22">隐私保护计算平台</tspan>
            </text>
        </g>
    </g>
</svg>