<?xml version="1.0" encoding="UTF-8"?>
<svg width="151px" height="143px" viewBox="0 0 151 143" version="1.1" xmlns="http://www.w3.org/2000/svg" xmlns:xlink="http://www.w3.org/1999/xlink">
    <title>编组 4</title>
    <defs>
        <linearGradient x1="50%" y1="0%" x2="50%" y2="99.9970866%" id="linearGradient-1">
            <stop stop-color="#92C1FC" stop-opacity="0.2" offset="0%"></stop>
            <stop stop-color="#187FC4" stop-opacity="0" offset="45%"></stop>
        </linearGradient>
        <linearGradient x1="50.0161331%" y1="-0.00792255284%" x2="50.0161331%" y2="99.9813726%" id="linearGradient-2">
            <stop stop-color="#92C1FC" stop-opacity="0.4" offset="3%"></stop>
            <stop stop-color="#92C1FC" stop-opacity="0.2" offset="25%"></stop>
            <stop stop-color="#187FC4" stop-opacity="0" offset="80%"></stop>
        </linearGradient>
        <linearGradient x1="50.0089171%" y1="0.0055031418%" x2="50.0089171%" y2="100.062446%" id="linearGradient-3">
            <stop stop-color="#92C1FC" stop-opacity="0.4" offset="3%"></stop>
            <stop stop-color="#92C1FC" stop-opacity="0.2" offset="25%"></stop>
            <stop stop-color="#187FC4" stop-opacity="0" offset="80%"></stop>
        </linearGradient>
        <linearGradient x1="50.0049803%" y1="0.00880767132%" x2="50.0049803%" y2="99.9974504%" id="linearGradient-4">
            <stop stop-color="#92C1FC" stop-opacity="0.4" offset="3%"></stop>
            <stop stop-color="#92C1FC" stop-opacity="0.2" offset="25%"></stop>
            <stop stop-color="#187FC4" stop-opacity="0" offset="80%"></stop>
        </linearGradient>
        <linearGradient x1="79.5667177%" y1="22.495577%" x2="39.1412902%" y2="59.083128%" id="linearGradient-5">
            <stop stop-color="#63A6F9" offset="0%"></stop>
            <stop stop-color="#92C1FC" offset="100%"></stop>
        </linearGradient>
        <linearGradient x1="77.2735318%" y1="20.5687985%" x2="30.6078552%" y2="61.6834006%" id="linearGradient-6">
            <stop stop-color="#63A6F9" offset="0%"></stop>
            <stop stop-color="#92C1FC" offset="100%"></stop>
        </linearGradient>
    </defs>
    <g id="用户中心" stroke="none" stroke-width="1" fill="none" fill-rule="evenodd">
        <g id="客户端证书管理（未申请）" transform="translate(-747.000000, -347.000000)">
            <g id="编组-4" transform="translate(747.000000, 347.000000)">
                <ellipse id="椭圆形" fill="url(#linearGradient-1)" fill-rule="nonzero" cx="76.0157895" cy="99.1592105" rx="74.1342105" ry="43.8407895"></ellipse>
                <path d="M30.4377287,9.82549112 C31.5980706,7.84771395 34.164113,6.35345057 39.6386776,7.41563779 C39.6386776,7.41563779 48.3821349,-8.27284172 62.0889929,5.98824334 C62.0889929,5.98824334 70.2676142,4.02332558 72.3531626,10.2395641 C73.2626786,12.9936038 71.8523558,15.979454 69.1558328,17.0087572 C62.1247744,19.7246645 46.0026673,24.4672147 32.6434006,17.2813767 C29.9751254,15.8436947 28.8965698,12.4565263 30.4377287,9.82549112 Z" id="路径" fill="url(#linearGradient-2)" fill-rule="nonzero"></path>
                <path d="M0.571945277,47.4172933 C1.50941739,45.8264053 3.57849753,44.6249134 8.00530727,45.4779983 C8.00530727,45.4779983 15.0606151,32.8584909 26.118699,44.3303046 C26.118699,44.3303046 32.7091024,42.7522257 34.4026828,47.7503294 C35.1286775,49.9641453 33.9882741,52.3588139 31.8150554,53.1839419 C26.1416888,55.3666094 13.1345825,59.1709067 2.35493039,53.4016963 C0.198999967,52.2565644 -0.672057228,49.5333536 0.571945277,47.4172933 Z" id="路径" fill="url(#linearGradient-3)" fill-rule="nonzero"></path>
                <path d="M111.60957,20.5172253 C112.585466,18.9638215 114.745279,17.7911038 119.365378,18.6240144 C119.365378,18.6240144 126.725691,6.29131678 138.264382,17.5023955 C138.264382,17.5023955 145.139315,15.9694313 146.906201,20.8442577 C147.676645,23.0006274 146.47732,25.3460628 144.212213,26.1610888 C138.305472,28.297019 124.719967,32.0144574 113.474046,26.3757038 C111.219211,25.2464201 110.312655,22.5867271 111.60957,20.5172253 Z" id="路径" fill="url(#linearGradient-4)" fill-rule="nonzero"></path>
                <path d="M95.2078947,86.9228927 C95.2078947,86.9228927 99.6857981,72.7495957 112.427234,66.3847236 L115.551473,68.4978611 L114.027956,65.4579983 C114.027956,65.4579983 123.151041,60.4322953 127.793649,64.3199591 C130.403185,66.5018373 127.335564,73.9207321 119.136369,83.4476725 L116.34926,82.6227851 L118.083804,85.1050852 C118.083804,85.1050852 112.774658,94.9782747 103.265547,95.5842105 L98.8313935,91.7118224 L95.2078947,86.9228927 Z" id="路径" fill="url(#linearGradient-5)" fill-rule="nonzero"></path>
                <path d="M98.62007,91.8052051 C98.3473843,92.0603413 100.294771,89.2079187 103.559281,85.1920751 C108.763461,78.7932596 117.481684,68.460244 127.571053,64.35" id="路径" stroke="#AAD0FF" stroke-width="1.74" fill="url(#linearGradient-6)" fill-rule="nonzero" stroke-linecap="round"></path>
                <path d="M113.647368,74.4872992 C113.647368,74.4872992 118.587701,72.9192267 121.926316,76.3921053" id="路径" stroke="#AAD0FF" stroke-width="1.74" stroke-linecap="round"></path>
                <path d="M114.023684,88.8105263 C109.465363,83.4359844 104.239474,84.8350547 104.239474,84.8350547" id="路径" stroke="#AAD0FF" stroke-width="1.74" stroke-linecap="round"></path>
                <path d="M106.497368,82.0368421 C106.497368,82.0368421 110.891177,75.7712812 111.013158,68.4894737" id="路径" stroke="#AAD0FF" stroke-width="1.74" stroke-linecap="round"></path>
                <path d="M135.097368,78.65 C135.097368,78.65 127.660726,100.871108 104.483996,98.8398155 L100.476316,91.9482969 C100.476316,91.9482969 131.999829,82.2765751 135.097368,78.65 Z" id="路径" fill="#AAD0FF" fill-rule="nonzero"></path>
                <path d="M100.476316,91.8316454 C100.476316,91.8316454 107.461712,84.4056886 120.739064,82.348996 C120.739064,82.348996 131.043799,81.3880197 135.097368,78.65 C135.097368,78.65 129.350988,84.726014 119.377677,85.8395262 C119.377677,85.8395262 120.23683,86.6759314 126.434457,85.5395389 C126.434457,85.5395389 116.810416,94.1247687 103.193992,94.4552632 L100.476316,91.8316454 Z" id="路径" fill="#63A6F9" fill-rule="nonzero"></path>
                <path d="M98.0419565,18.8260005 L95.5882125,18.8260005 L95.5882125,16.18761 C95.5882125,15.7686122 95.2494561,15.4289474 94.8315789,15.4289474 C94.4137018,15.4289474 94.0749454,15.7686122 94.0749454,16.18761 L94.0749454,18.8260005 L91.6212014,18.8260005 C91.423712,18.8260005 91.2412243,18.9316424 91.1424796,19.1031318 C91.0437349,19.2746213 91.0437349,19.485905 91.1424796,19.6573945 C91.2412243,19.828884 91.423712,19.9345258 91.6212014,19.9345258 L94.0749454,19.9345258 L94.0749454,22.5729163 C94.0749454,22.9919141 94.4137018,23.3315789 94.8315789,23.3315789 C95.2494561,23.3315789 95.5882125,22.9919141 95.5882125,22.5729163 L95.5882125,19.9345258 L98.0419565,19.9345258 C98.2394459,19.9345258 98.4219336,19.828884 98.5206783,19.6573945 C98.619423,19.485905 98.619423,19.2746213 98.5206783,19.1031318 C98.4219336,18.9316424 98.2394459,18.8260005 98.0419565,18.8260005 L98.0419565,18.8260005 Z" id="路径" fill="#63A6F9" fill-rule="nonzero"></path>
                <path d="M33.3065152,42.7842299 C33.8864978,42.7832119 34.4098919,43.1319347 34.6323132,43.6675742 C34.8547345,44.2032138 34.7323082,44.8201098 34.3221979,45.2302201 C33.9120876,45.6403304 33.2951915,45.7627567 32.759552,45.5403354 C32.2239125,45.3179141 31.8751897,44.7945201 31.8762076,44.2145374 C31.8775984,43.4251775 32.5171552,42.7856206 33.3065152,42.7842299 M33.3065152,41.0184221 C32.0123288,41.0174028 30.8450562,41.7963515 30.3493211,42.9918289 C29.853586,44.1873063 30.1270874,45.5637086 31.0422157,46.4788369 C31.957344,47.3939652 33.3337463,47.6674666 34.5292237,47.1717315 C35.7247011,46.6759964 36.5036498,45.5087239 36.5026306,44.2145374 C36.5026306,42.4493722 35.0716804,41.0184221 33.3065152,41.0184221 L33.3065152,41.0184221 Z" id="形状" fill="#63A6F9" fill-rule="nonzero"></path>
                <path d="M127.009148,56.3315982 C127.588902,56.3305798 128.112136,56.6790292 128.334706,57.2143586 C128.557276,57.7496881 128.435312,58.3663862 128.025726,58.7766953 C127.616139,59.1870044 126.999656,59.3100542 126.463935,59.0884282 C125.928214,58.8668023 125.578843,58.3441824 125.578843,57.7644283 C125.578843,56.9740834 126.218804,56.3329919 127.009148,56.3315982 M127.009148,54.5657905 C125.715191,54.564771 124.548078,55.3434465 124.052194,56.538614 C123.556311,57.7337816 123.82935,59.1099858 124.743955,60.0253127 C125.65856,60.9406395 127.034549,61.214764 128.230108,60.719824 C129.425666,60.2248839 130.205263,59.0583856 130.205263,57.7644283 C130.205263,55.9988546 128.774722,54.5671839 127.009148,54.5657905 L127.009148,54.5657905 Z" id="形状" fill="#63A6F9" fill-rule="nonzero"></path>
                <rect id="矩形" fill="#63A6F9" fill-rule="nonzero" x="41.7710526" y="29.3526316" width="62.0921053" height="76.7684211" rx="12"></rect>
                <rect id="矩形" fill="#92C1FC" fill-rule="nonzero" x="43.2763158" y="29.3526316" width="62.0921053" height="76.7684211" rx="12"></rect>
                <rect id="矩形" fill="#FAFCFF" fill-rule="nonzero" x="46.2868421" y="33.4921053" width="55.6947368" height="68.8657895" rx="12"></rect>
                <rect id="矩形" fill="#63A6F9" fill-rule="nonzero" x="62.0921053" y="25.9657895" width="24.0842105" height="9.40789474" rx="4.70394737"></rect>
                <rect id="矩形" fill="#92C1FC" fill-rule="nonzero" x="63.2210526" y="25.9657895" width="24.0842105" height="9.40789474" rx="4.70394737"></rect>
                <rect id="矩形" fill="#63A6F9" fill-rule="nonzero" x="53.8131579" y="45.5342105" width="14.6763158" height="1.88157895" rx="0.940789474"></rect>
                <rect id="矩形" fill="#63A6F9" fill-rule="nonzero" x="53.8131579" y="51.9315789" width="40.6421053" height="1.50526316" rx="0.752631579"></rect>
                <rect id="矩形" fill="#63A6F9" fill-rule="nonzero" x="53.8131579" y="66.2315789" width="14.6763158" height="1.88157895" rx="0.940789474"></rect>
                <rect id="矩形" fill="#63A6F9" fill-rule="nonzero" x="53.8131579" y="72.6289474" width="40.6421053" height="1.50526316" rx="0.752631579"></rect>
            </g>
        </g>
    </g>
</svg>